Coordinates
version=1
nRows=15
nColumns=34
inDegrees=no

Units are S.I. units (second, meters, Newtons, ...)
If the header above contains a line with 'inDegrees', this indicates whether rotational values are in degrees (yes) or radians (no).

endheader
time	pelvis_tilt	pelvis_list	pelvis_rotation	pelvis_tx	pelvis_ty	pelvis_tz	hip_flexion_r	hip_adduction_r	hip_rotation_r	knee_angle_r	ankle_angle_r	subtalar_angle_r	mtp_angle_r	hip_flexion_l	hip_adduction_l	hip_rotation_l	knee_angle_l	ankle_angle_l	subtalar_angle_l	mtp_angle_l	lumbar_extension	lumbar_bending	lumbar_rotation	arm_flex_r	arm_add_r	arm_rot_r	elbow_flex_r	pro_sup_r	arm_flex_l	arm_add_l	arm_rot_l	elbow_flex_l	pro_sup_l
0.94	-0.0164356	0.0261774	0.0475286	-0.468679	1.09676	-0.594499	0.456495	-0.137435	-0.300079	0.317785	-0.475916	0.207103	-0.0180727	0.372664	-0.118492	-0.446114	0.262362	-0.397514	0.326514	-0.0180727	-0.350458	-0.00342728	0.0108974	-1.34837	-0.152707	-0.776049	2.13604	1.78345	-1.21002	-0.137498	-0.926036	2.15597	1.82021
0.95	-0.0105995	0.023291	0.0590623	-0.46174	1.07005	-0.59603	0.511123	-0.145839	-0.27234	0.45888	-0.339156	0.157233	-0.0180727	0.435288	-0.125809	-0.387724	0.415418	-0.232125	0.259467	-0.0180727	-0.373084	0.00291521	-0.0014425	-1.30414	-0.102702	-0.748215	2.0625	1.81526	-1.18287	-0.0812152	-0.914939	2.06952	1.84073
0.96	-0.00570108	0.0210992	0.0693594	-0.455257	1.04263	-0.597118	0.566016	-0.152787	-0.245765	0.595555	-0.208892	0.112355	-0.0180727	0.498239	-0.130849	-0.334255	0.562979	-0.0839652	0.199848	-0.0180727	-0.395918	0.00790951	-0.0126025	-1.25104	-0.0631942	-0.721687	1.98269	1.83507	-1.14645	-0.0346367	-0.900655	1.9842	1.849
0.97	-0.00175084	0.0195934	0.0783779	-0.449545	1.01524	-0.597846	0.621076	-0.158247	-0.220351	0.727469	-0.0857108	0.0724481	-0.0180727	0.561369	-0.133643	-0.285718	0.704715	0.0466961	0.147633	-0.0180727	-0.418937	0.0115442	-0.0225131	-1.18917	-0.0341345	-0.696279	1.89673	1.84306	-1.10088	0.0022523	-0.88311	1.90009	1.84506
0.98	0.00122171	0.0187251	0.0859949	-0.444263	0.988054	-0.598363	0.676047	-0.162118	-0.19609	0.85379	0.0290486	0.03745	-0.0180727	0.624281	-0.13431	-0.242103	0.839841	0.159533	0.102723	-0.0180727	-0.442076	0.0138126	-0.0309597	-1.1188	-0.0153349	-0.671486	1.80498	1.83994	-1.04643	0.0295239	-0.862079	1.81746	1.8291
0.99	0.00318646	0.0183652	0.0920023	-0.439211	0.961188	-0.598721	0.730517	-0.164206	-0.172987	0.973366	0.133708	0.00727654	-0.0180727	0.686324	-0.133116	-0.203318	0.967286	0.254726	0.0649104	-0.0180727	-0.465231	0.0147554	-0.0375525	-1.0405	-0.00637506	-0.646492	1.70824	1.82731	-0.983611	0.0473737	-0.837172	1.73674	1.80172
1	0.00415725	0.0182892	0.0961575	-0.434626	0.934948	-0.59894	0.783963	-0.16427	-0.151102	1.08506	0.226822	-0.0181799	-0.0180727	0.746671	-0.130475	-0.169158	1.086	0.333365	0.0338045	-0.0180727	-0.488289	0.0145055	-0.0417796	-0.955163	-0.00653524	-0.620313	1.60791	1.80782	-0.913162	0.0561968	-0.807898	1.65854	1.76426
1.01	0.00422265	0.0182024	0.0982844	-0.430713	0.90953	-0.599025	0.835829	-0.162115	-0.130572	1.18808	0.307527	-0.0391121	-0.0180727	0.804455	-0.126895	-0.139281	1.19524	0.397414	0.00875972	-0.0180727	-0.511154	0.0133113	-0.0431483	-0.86401	-0.014788	-0.592007	1.50602	1.785	-0.836053	0.0566501	-0.77382	1.58351	1.71907
1.02	0.00352631	0.0177987	0.0983848	-0.427459	0.885003	-0.59898	0.88564	-0.157727	-0.111608	1.2821	0.375645	-0.0558504	-0.0180727	0.858947	-0.122864	-0.113209	1.29469	0.449356	-0.0111127	-0.0180727	-0.533724	0.0115262	-0.0413645	-0.768503	-0.0298581	-0.560845	1.40521	1.76274	-0.753417	0.0496821	-0.734727	1.51236	1.66967
1.03	0.00220682	0.0168253	0.0967007	-0.424704	0.861469	-0.598865	0.933087	-0.15137	-0.0944572	1.36732	0.431681	-0.0688206	-0.0180727	0.909705	-0.118764	-0.0903833	1.38449	0.491751	-0.0268109	-0.0180727	-0.555843	0.00956386	-0.0364704	-0.670225	-0.050334	-0.526415	1.30852	1.74452	-0.666492	0.0365129	-0.690799	1.44576	1.62056
1.04	0.000344294	0.0151295	0.0936938	-0.422254	0.839089	-0.598741	0.978048	-0.143607	-0.079357	1.44428	0.476766	-0.0784326	-0.0180727	0.956643	-0.114834	-0.070225	1.4652	0.526907	-0.0392664	-0.0180727	-0.577252	0.00783299	-0.0288739	-0.570717	-0.074794	-0.488656	1.21899	1.73261	-0.576565	0.0185615	-0.642669	1.38441	1.57659
1.05	-0.00204991	0.012674	0.0899532	-0.420005	0.818006	-0.598639	1.02055	-0.135224	-0.0664939	1.51375	0.512533	-0.0849926	-0.0180727	0.999999	-0.111185	-0.0522104	1.53762	0.556688	-0.0492226	-0.0180727	-0.597592	0.00667181	-0.019266	-0.471324	-0.101907	-0.447857	1.1393	1.72761	-0.484921	-0.00267206	-0.591383	1.32902	1.54199
1.06	-0.00500327	0.00952706	0.0860756	-0.417919	0.798249	-0.598581	1.06071	-0.127102	-0.0559705	1.57657	0.540903	-0.088694	-0.0180727	1.04022	-0.107846	-0.0359221	1.60271	0.582477	-0.0572008	-0.0180727	-0.616449	0.00630059	-0.00847873	-0.373079	-0.130483	-0.404639	1.07133	1.7286	-0.392799	-0.0257502	-0.538239	1.2803	1.51943
1.07	-0.00854022	0.00584104	0.0825618	-0.415957	0.779721	-0.5986	1.09865	-0.120069	-0.0477787	1.63355	0.563832	-0.0896727	-0.0180727	1.07781	-0.104806	-0.0210807	1.66145	0.605232	-0.0635312	-0.0180727	-0.633429	0.00679986	0.00265268	-0.276621	-0.159477	-0.359936	1.01597	1.7338	-0.301344	-0.0494363	-0.48459	1.23891	1.50957
1.08	-0.012653	0.00182609	0.0797529	-0.414052	0.762283	-0.598718	1.13452	-0.114783	-0.041776	1.68548	0.583087	-0.0880859	-0.0180727	1.11324	-0.102039	-0.00754632	1.71477	0.625609	-0.0684147	-0.0180727	-0.648232	0.00811584	0.0133814	-0.182178	-0.187962	-0.314944	0.973006	1.74127	-0.211541	-0.0727938	-0.431675	1.20529	1.51126
